<svg width="20" height="20" viewBox="0 0 20 20" fill="none" xmlns="http://www.w3.org/2000/svg">
<path d="M13.3464 15.6667C13.3464 17.5077 11.8539 19 10.013 19C8.172 19 6.67969 17.5077 6.67969 15.6667C6.67969 13.8257 8.172 12.3333 10.013 12.3333C11.8539 12.3333 13.3464 13.8257 13.3464 15.6667Z" fill="#F5B953"/>
<path d="M17.8288 13.0934C16.5689 12.0283 15.8464 10.4725 15.8464 8.82333V6.50003C15.8464 3.28333 13.2289 0.666748 10.013 0.666748C6.79718 0.666748 4.17969 3.28333 4.17969 6.50003V8.82333C4.17969 10.4725 3.45718 12.0292 2.18964 13.1008C1.86554 13.3775 1.67969 13.7817 1.67969 14.2083C1.67969 15.0126 2.33383 15.6667 3.13797 15.6667H16.888C17.6923 15.6667 18.3464 15.0126 18.3464 14.2083C18.3464 13.7817 18.1606 13.3775 17.8288 13.0934Z" fill="#FFCE3A"/>
</svg>
