<svg width="20" height="20" viewBox="0 0 20 20" fill="none" xmlns="http://www.w3.org/2000/svg">
<path d="M2.69169 11.4583C2.56592 11.5849 2.48412 11.7485 2.45836 11.925L1.67503 17.3833C1.6557 17.5114 1.66673 17.6423 1.70722 17.7654C1.74771 17.8884 1.81653 18.0003 1.90814 18.0919C1.99975 18.1835 2.11159 18.2523 2.23466 18.2928C2.35773 18.3333 2.48859 18.3443 2.61669 18.325L8.07503 17.5417C8.25156 17.5159 8.41515 17.4341 8.54169 17.3083L14.975 10.8833L9.11669 5.03333L2.69169 11.4583Z" fill="#A5A8AF"/>
<path d="M11.2667 2.8833L10.3 3.84996L16.15 9.69997L17.125 8.7333C20.9858 4.85246 15.1302 -0.980203 11.2667 2.8833Z" fill="#A5A8AF"/>
</svg>
