<svg width="32" height="32" viewBox="0 0 32 32" fill="none" xmlns="http://www.w3.org/2000/svg">
<path d="M16.8747 26.8166C17.2747 26.95 17.2747 27.35 16.8747 27.4833L14.7414 28.15C9.40807 29.8833 6.60807 28.4166 4.87474 23.0833L3.1414 17.8833C1.40807 12.55 2.87474 9.74997 8.20807 8.01664L8.87474 7.74997C9.5414 7.61664 10.0747 8.14997 9.94141 8.6833C9.80807 8.94997 9.67474 9.34997 9.67474 9.61664L8.34141 15.2166C6.87474 21.4833 9.00807 24.95 15.2747 26.4166L16.8747 26.8166Z" fill="#8B9AEA"/>
<path d="M23.1782 4.11505L20.9115 3.58171C16.5115 2.51505 13.8448 3.44838 12.2448 6.64838C11.8448 7.44838 11.5782 8.38171 11.3115 9.58171L9.97816 15.1817C8.64483 20.7817 10.3782 23.4484 15.9782 24.7817L18.2448 25.3151C19.0448 25.4484 19.7115 25.5817 20.3782 25.7151C24.5115 26.1151 26.7782 24.1151 27.8448 19.3151L29.1782 13.715C30.3782 8.24838 28.7782 5.44838 23.1782 4.11505ZM20.6448 17.5817C20.5115 17.9817 20.1115 18.3817 19.7115 18.3817C19.5782 18.3817 19.5782 18.3817 19.4448 18.3817L15.5782 17.4484C15.0448 17.315 14.7782 16.7817 14.9115 16.2484C15.0448 15.715 15.5782 15.4484 16.1115 15.5817L19.9782 16.515C20.5115 16.515 20.7782 17.0484 20.6448 17.5817ZM24.5115 13.0484C24.3782 13.4484 23.9782 13.8484 23.5782 13.8484C23.4448 13.8484 23.4448 13.8484 23.3115 13.8484L16.9115 12.2484C16.3782 12.115 16.1115 11.5817 16.2448 11.0484C16.3782 10.515 16.9115 10.2484 17.4448 10.3817L23.8448 11.8484C24.3782 11.9817 24.6448 12.515 24.5115 13.0484Z" fill="#8B9AEA"/>
</svg>
