<svg width="14" height="14" viewBox="0 0 14 14" fill="none" xmlns="http://www.w3.org/2000/svg">
<path d="M7 8C7.55228 8 8 7.55228 8 7C8 6.44772 7.55228 6 7 6C6.44772 6 6 6.44772 6 7C6 7.55228 6.44772 8 7 8Z" fill="#B0B1B6"/>
<path d="M7 3.5C7.55228 3.5 8 3.05228 8 2.5C8 1.94772 7.55228 1.5 7 1.5C6.44772 1.5 6 1.94772 6 2.5C6 3.05228 6.44772 3.5 7 3.5Z" fill="#B0B1B6"/>
<path d="M7 12.5C7.55228 12.5 8 12.0523 8 11.5C8 10.9477 7.55228 10.5 7 10.5C6.44772 10.5 6 10.9477 6 11.5C6 12.0523 6.44772 12.5 7 12.5Z" fill="#B0B1B6"/>
</svg>
