<svg width="34" height="34" viewBox="0 0 34 34" fill="none" xmlns="http://www.w3.org/2000/svg">
<path d="M28.4995 9.15034C27.5686 7.95103 26.2535 7.09335 24.7657 6.7151C23.2778 6.33684 21.7034 6.45997 20.2955 7.0647C19.0354 7.59792 17.9115 8.49694 17 9.68999C16.0885 8.49402 14.9646 7.595 13.7045 7.0647C12.2966 6.45997 10.7222 6.33684 9.23433 6.7151C7.74645 7.09335 6.43143 7.95103 5.5005 9.15034C4.51881 10.4116 4 11.988 4 13.7084C4 16.1844 5.50586 18.9007 8.47533 21.785C10.8951 24.1343 13.7545 26.0584 15.2431 26.9959C15.7676 27.3251 16.3773 27.5 17 27.5C17.6227 27.5 18.2324 27.3251 18.7569 26.9959C20.2443 26.0584 23.1049 24.1343 25.5247 21.785C28.4941 18.9018 30 16.1844 30 13.7084C30 11.988 29.4812 10.4116 28.4995 9.15034Z" fill="#E96868"/>
</svg>
