<svg width="32" height="32" viewBox="0 0 32 32" fill="none" xmlns="http://www.w3.org/2000/svg">
<path d="M28.9334 17.2C28.5334 16 28.0001 15.0667 27.2001 14.2667C26.2668 13.2 24.9334 12.4 23.4668 12C22.6668 8.66668 20.6667 6.26668 17.7334 5.33335C14.6667 4.40001 11.0667 5.33335 8.66675 7.86668C6.66675 9.86668 6.00008 12.8 6.80008 16C4.13341 16.6667 2.80008 18.9333 2.66675 21.0667V21.4667C2.66675 24 4.26675 26.8 8.00008 27.0667H21.8668C23.7334 27.0667 25.6001 26.4 26.9334 25.0667C29.0668 23.0667 29.8668 20.1333 28.9334 17.2Z" fill="#D5D5DE"/>
</svg>
