<svg width="112" height="107" viewBox="0 0 112 107" fill="none" xmlns="http://www.w3.org/2000/svg">
<g clip-path="url(#clip0_201_1611)">
<g filter="url(#filter0_i_201_1611)">
<path d="M92.7557 37.1582C92.9719 24.8504 86.9557 12.7266 75.7754 5.63648C59.3293 -4.77979 37.2485 -0.361918 26.1255 15.5957C21.5338 22.1844 19.4288 29.6999 19.5623 37.0947C19.5878 38.6054 18.4875 39.8686 17.0057 40.1796C7.29453 42.2235 0 50.8244 0 61.1264C0 72.9518 9.60309 82.5366 21.4511 82.5366H90.5489C102.397 82.5366 112 72.9518 112 61.1264C112 50.926 104.852 42.3886 95.2805 40.2431C93.8177 39.913 92.7302 38.6562 92.7557 37.1646V37.1582Z" fill="#F2F5F7"/>
</g>
<path d="M41.8912 47.4159C43.8335 47.4159 45.4081 45.7079 45.4081 43.601C45.4081 41.4942 43.8335 39.7862 41.8912 39.7862C39.9488 39.7862 38.3743 41.4942 38.3743 43.601C38.3743 45.7079 39.9488 47.4159 41.8912 47.4159Z" fill="#BEC1CA"/>
<path d="M70.1089 47.4159C72.0513 47.4159 73.6258 45.7079 73.6258 43.601C73.6258 41.4942 72.0513 39.7862 70.1089 39.7862C68.1666 39.7862 66.592 41.4942 66.592 43.601C66.592 45.7079 68.1666 47.4159 70.1089 47.4159Z" fill="#BEC1CA"/>
<path fill-rule="evenodd" clip-rule="evenodd" d="M55.5017 45.2872C55.8201 45.0729 56.2362 45.07 56.5575 45.2799L59.5211 47.2159C59.9619 47.5039 60.0854 48.094 59.7969 48.534C59.5084 48.974 58.9171 49.0972 58.4763 48.8092L56.043 47.2197L53.8529 48.694C53.4162 48.9881 52.8233 48.873 52.5287 48.4371C52.2341 48.0011 52.3493 47.4093 52.7861 47.1153L55.5017 45.2872Z" fill="#BEC1CA"/>
<path d="M36.6443 93.0418C36.6443 95.4983 34.6473 97.4914 32.1862 97.4914C29.725 97.4914 27.728 95.4983 27.728 93.0418C27.728 91.1122 30.4818 87.748 31.6583 86.4023C31.9318 86.085 32.4278 86.085 32.7013 86.4023C33.8778 87.748 36.6316 91.1122 36.6316 93.0418H36.6443Z" fill="#D7DBDE"/>
<path d="M62.8843 102.55C62.8843 105.007 60.8873 107 58.4261 107C55.965 107 53.968 105.007 53.968 102.55C53.968 100.621 56.7218 97.2566 57.8983 95.9109C58.1718 95.5935 58.6678 95.5935 58.9413 95.9109C60.1178 97.2566 62.8715 100.621 62.8715 102.55H62.8843Z" fill="#D7DBDE"/>
<path d="M82.7075 84.6885C82.7075 87.145 80.7106 89.1381 78.2494 89.1381C75.7882 89.1381 73.7913 87.145 73.7913 84.6885C73.7913 82.7589 76.545 79.3947 77.7215 78.049C77.995 77.7316 78.491 77.7316 78.7645 78.049C79.9411 79.3947 82.6948 82.7589 82.6948 84.6885H82.7075Z" fill="#D7DBDE"/>
</g>
<defs>
<filter id="filter0_i_201_1611" x="0" y="-0.000732422" width="112" height="84.5373" filterUnits="userSpaceOnUse" color-interpolation-filters="sRGB">
<feFlood flood-opacity="0" result="BackgroundImageFix"/>
<feBlend mode="normal" in="SourceGraphic" in2="BackgroundImageFix" result="shape"/>
<feColorMatrix in="SourceAlpha" type="matrix" values="0 0 0 0 0 0 0 0 0 0 0 0 0 0 0 0 0 0 127 0" result="hardAlpha"/>
<feOffset dy="2"/>
<feGaussianBlur stdDeviation="2"/>
<feComposite in2="hardAlpha" operator="arithmetic" k2="-1" k3="1"/>
<feColorMatrix type="matrix" values="0 0 0 0 0.0588235 0 0 0 0 0.0431373 0 0 0 0 0.235294 0 0 0 0.1 0"/>
<feBlend mode="normal" in2="shape" result="effect1_innerShadow_201_1611"/>
</filter>
<clipPath id="clip0_201_1611">
<rect width="112" height="107" fill="white"/>
</clipPath>
</defs>
</svg>
