<svg width="25" height="24" viewBox="0 0 25 24" fill="none" xmlns="http://www.w3.org/2000/svg">
<path d="M11.0386 10.6383C11.4001 11.2872 11.6082 12.0319 11.6082 12.8191C11.6082 15.351 9.49425 17.4042 6.88745 17.4042C4.28066 17.4042 2.16675 15.351 2.16675 12.8191C2.16675 10.2872 4.28066 8.23401 6.88745 8.23401C7.19413 8.23401 7.47891 8.26592 7.76369 8.31912" stroke="#D66A91" stroke-width="2" stroke-miterlimit="10" stroke-linecap="round"/>
<path d="M6.88745 17.4042V22.5" stroke="#D66A91" stroke-width="2" stroke-miterlimit="10" stroke-linecap="round"/>
<path d="M4.79541 19.9575H8.99038" stroke="#D66A91" stroke-width="2" stroke-miterlimit="10" stroke-linecap="round"/>
<path d="M11.0385 10.6383C9.98704 8.88297 10.239 6.59574 11.7833 5.09574C13.6234 3.3085 16.6136 3.3085 18.4536 5.09574C20.2937 6.88297 20.2937 9.78722 18.4536 11.5745C17.3036 12.6915 15.7045 13.117 14.2149 12.8298" stroke="#D66A91" stroke-width="2" stroke-miterlimit="10" stroke-linecap="round"/>
<path d="M18.4536 5.09574L22.1666 1.5" stroke="#D66A91" stroke-width="2" stroke-miterlimit="10" stroke-linecap="round"/>
<path d="M18.4976 1.5H22.1668" stroke="#D66A91" stroke-width="2" stroke-miterlimit="10" stroke-linecap="round"/>
<path d="M22.1667 5.06383V1.5" stroke="#D66A91" stroke-width="2" stroke-miterlimit="10" stroke-linecap="round"/>
</svg>
