<svg width="20" height="20" viewBox="0 0 20 20" fill="none" xmlns="http://www.w3.org/2000/svg">
<g clip-path="url(#clip0_384_5024)">
<path d="M10 9.5C11.6569 9.5 13 8.15685 13 6.5C13 4.84315 11.6569 3.5 10 3.5C8.34315 3.5 7 4.84315 7 6.5C7 8.15685 8.34315 9.5 10 9.5Z" fill="#8B9AEA"/>
<path d="M12.4375 10.5H7.5625C5.59825 10.5 4 12.0983 4 14.0625V15.9375C4 16.248 4.252 16.5 4.5625 16.5H15.4375C15.748 16.5 16 16.248 16 15.9375V14.0625C16 12.0983 14.4017 10.5 12.4375 10.5Z" fill="#8B9AEA"/>
<path d="M4.16667 0H2.5C1.12167 0 0 1.12167 0 2.5V4.16667C0 4.6275 0.373333 5 0.833333 5C1.29333 5 1.66667 4.6275 1.66667 4.16667V2.5C1.66667 2.04 2.04083 1.66667 2.5 1.66667H4.16667C4.62667 1.66667 5 1.29417 5 0.833333C5 0.3725 4.62667 0 4.16667 0Z" fill="#A5A8AF"/>
<path d="M4.16667 18.3333H2.5C2.04083 18.3333 1.66667 17.96 1.66667 17.5V15.8333C1.66667 15.3725 1.29333 15 0.833333 15C0.373333 15 0 15.3725 0 15.8333V17.5C0 18.8783 1.12167 20 2.5 20H4.16667C4.62667 20 5 19.6275 5 19.1667C5 18.7058 4.62667 18.3333 4.16667 18.3333Z" fill="#A5A8AF"/>
<path d="M17.5 0H15.8333C15.3733 0 15 0.3725 15 0.833333C15 1.29417 15.3733 1.66667 15.8333 1.66667H17.5C17.9592 1.66667 18.3333 2.04 18.3333 2.5V4.16667C18.3333 4.6275 18.7067 5 19.1667 5C19.6267 5 20 4.6275 20 4.16667V2.5C20 1.12167 18.8783 0 17.5 0Z" fill="#A5A8AF"/>
<path d="M19.1667 15C18.7067 15 18.3333 15.3725 18.3333 15.8333V17.5C18.3333 17.96 17.9592 18.3333 17.5 18.3333H15.8333C15.3733 18.3333 15 18.7058 15 19.1667C15 19.6275 15.3733 20 15.8333 20H17.5C18.8783 20 20 18.8783 20 17.5V15.8333C20 15.3725 19.6267 15 19.1667 15Z" fill="#A5A8AF"/>
</g>
<defs>
<clipPath id="clip0_384_5024">
<rect width="20" height="20" fill="white"/>
</clipPath>
</defs>
</svg>
