<svg width="136" height="30" viewBox="0 0 136 30" fill="none" xmlns="http://www.w3.org/2000/svg">
<path d="M9.823 9.44085C7.96264 9.33207 6.10229 10.2567 4.40139 12.1059C2.7005 13.9008 1.74374 16.022 1.37167 16.8378C0.574378 18.687 -0.648141 22.3855 0.414919 25.7576C0.893296 27.4437 2.06266 28.749 3.7104 29.4017C4.5077 29.7281 5.4113 29.8912 6.3149 29.8912C7.69688 29.8912 9.07886 29.5105 10.3014 28.8578C12.9059 27.3349 14.6599 25.2681 15.723 22.4399C15.9887 21.6784 16.2014 20.917 16.414 20.1555C16.5734 19.3941 16.0951 18.687 15.3509 18.5239C14.6599 18.3063 13.9158 18.7958 13.7563 19.5573C13.5969 20.2099 13.4374 20.8082 13.1716 21.4609C12.3743 23.6908 11.0455 25.2681 8.97255 26.4103C7.64373 27.1718 5.99598 27.3349 4.72031 26.791C3.81671 26.4647 3.28518 25.812 2.96626 24.9418C2.22212 22.3855 3.17887 19.4485 3.86986 17.9256C4.87977 15.5325 7.27166 12.0515 9.66354 12.2147C9.92931 12.2147 10.4077 12.2691 10.5671 12.541C10.7798 12.813 10.7266 13.6288 10.3014 14.771C10.0356 15.4781 10.3545 16.2939 11.0455 16.5658C11.7897 16.8378 12.5338 16.5115 12.7996 15.8044C13.5969 13.8464 13.5969 12.1603 12.8527 11.0181C12.4275 10.3655 11.577 9.54963 9.823 9.44085Z" fill="#C0C6F0"/>
<path d="M18.6983 4.05631C17.9542 3.89314 17.21 4.38265 17.0506 5.08971L15.2434 13.0305L13.4893 20.8626C12.5326 25.2137 13.5956 28.8034 16.0407 29.7281C16.4659 29.9456 16.8911 30 17.3695 30C20.0803 30 23.11 27.063 24.8109 22.5487C25.0767 21.7872 25.2893 20.9714 25.4487 20.2099C25.6082 19.5029 25.183 18.7414 24.4388 18.5783C23.7478 18.4151 23.0037 18.8502 22.8442 19.6116C22.6848 20.2643 22.4722 20.917 22.2596 21.5153C20.7181 25.6489 18.1136 27.6069 16.9974 27.1718C16.0407 26.791 15.456 24.5611 16.0938 21.5153L17.901 13.6832L19.7082 5.74238C19.8677 4.98093 19.3893 4.21948 18.6983 4.05631Z" fill="#C0C6F0"/>
<path d="M34.1604 9.87596C32.3532 9.06013 30.2803 9.44085 28.2073 10.9637C26.4001 12.2691 24.8055 14.3903 23.7424 16.8922C22.6262 19.3941 22.201 22.0592 22.5199 24.3435C22.8388 26.8998 24.0082 28.6947 25.8154 29.5105C26.4532 29.7824 27.0911 29.9456 27.7289 29.9456C29.9082 29.9456 32.1938 28.5859 34.0541 26.2471C34.5856 26.4647 35.1703 26.6279 35.755 26.7366H36.3928C38.4658 26.7366 40.3262 25.5945 41.4424 23.4733C41.8145 22.8206 42.1334 22.0592 42.346 21.5153C42.5054 21.0802 42.6118 20.6994 42.7181 20.2643C42.9307 19.5573 42.5586 18.7958 41.8145 18.5783C41.1235 18.3607 40.3793 18.7414 40.1667 19.5029L39.7946 20.5363C39.6352 20.9714 39.3694 21.624 39.1037 22.1136C38.3595 23.4733 37.2965 24.126 36.0739 23.9628C35.9145 23.9628 35.755 23.9084 35.5956 23.854C35.8613 23.4189 36.0739 22.9838 36.2865 22.4943C38.6253 17.001 37.6685 11.4533 34.1604 9.87596ZM30.9181 12.541C29.2172 15.2061 29.483 19.5573 30.0145 21.3521C30.3334 22.6031 30.9712 23.7452 31.8217 24.6155C30.2803 26.4647 28.3667 27.6613 26.8785 26.9542C25.7091 26.4647 25.337 24.8874 25.1776 23.9628C24.965 22.2223 25.337 20.0468 26.1875 18.0344C27.0379 15.9676 28.3667 14.2271 29.8019 13.1937C30.0676 12.9762 30.4929 12.7586 30.9181 12.541ZM34.1073 13.3025C35.2235 15.0429 34.9577 18.5782 33.7884 21.4065C33.682 21.6784 33.5226 21.9504 33.3631 22.2223C33.0442 21.7328 32.7784 21.1889 32.5658 20.5907C32.1406 18.959 32.1406 15.4781 33.31 13.9008C33.5226 13.5744 33.7884 13.4113 34.1073 13.3025Z" fill="#C0C6F0"/>
<path d="M52.72 10.3111C51.9758 10.1479 51.2317 10.6374 51.0722 11.3445L50.7533 12.8674L49.3182 19.2853C49.265 19.3397 49.265 19.3941 49.265 19.4485C49.1056 20.0468 48.8929 20.6994 48.6803 21.3521C47.9893 23.2557 46.9263 24.9418 45.7569 26.0296C44.8533 26.8454 44.0029 27.1718 43.4182 26.9542C42.4614 26.6279 41.8767 24.3979 42.5146 21.2977L44.3218 13.4657L44.6407 11.9428C44.8002 11.1813 44.3218 10.4742 43.6308 10.3111C42.8867 10.1479 42.1425 10.6374 41.983 11.3445L41.6641 12.8674L40.2822 19.0134C39.4849 23.2557 39.3254 24.2891 39.9101 26.4103C40.3353 27.9876 41.2389 29.0754 42.4614 29.5649C42.8867 29.7281 43.3119 29.8368 43.7902 29.8368C45.5443 29.8368 47.4578 28.5859 48.9992 26.4647C49.4776 27.9876 50.3281 29.0754 51.5506 29.5649C51.9758 29.7281 52.401 29.8368 52.8794 29.8368C54.1019 29.8368 55.3776 29.2385 56.6533 28.0964C58.1416 26.7366 59.4172 24.6699 60.2677 22.3311C60.5866 21.5697 60.7992 20.8082 60.9587 20.0468C61.1181 19.2853 60.6929 18.5783 59.9488 18.4151C59.2046 18.1975 58.5136 18.687 58.3542 19.4485C58.1947 20.0468 57.9821 20.6994 57.7695 21.3521C57.0785 23.2557 56.0154 24.9418 54.8461 26.0296C53.9425 26.8454 53.092 27.1718 52.5073 26.9542C51.5506 26.6279 50.9659 24.3979 51.6037 21.2977L53.4109 13.4657L53.7299 11.9428C53.8893 11.1813 53.4109 10.4742 52.72 10.3111Z" fill="#C0C6F0"/>
<path d="M75.5118 0.0315011C74.8208 -0.131665 74.0767 0.35784 73.9172 1.0649L71.419 11.9428C70.8875 11.1813 70.1965 10.583 69.346 10.2023C65.9443 8.6794 61.4794 11.6708 59.1938 17.001C56.9082 22.3855 57.8118 27.77 61.2136 29.2929C61.8515 29.5649 62.4893 29.7281 63.1271 29.7281C65.2001 29.7281 67.4857 28.3683 69.2929 26.1384C69.665 27.9332 70.5686 29.2385 71.9505 29.7824C72.3758 29.9456 72.801 30 73.2794 30C75.9902 30 79.0199 27.063 80.6676 22.5487C80.9866 21.7872 81.1992 21.0258 81.3586 20.2099C81.5181 19.5029 81.0929 18.7414 80.3487 18.5783C79.6577 18.4151 78.9136 18.8502 78.7541 19.6116C78.5947 20.2643 78.3821 20.917 78.1694 21.5697C76.7875 25.3225 74.183 27.6613 72.9073 27.1718C71.9505 26.791 71.3659 24.5611 72.0037 21.5153L76.5217 1.71757C76.7343 0.95612 76.2559 0.19467 75.5118 0.0315011ZM67.4325 12.541C67.7515 12.541 68.0172 12.5954 68.283 12.7586C69.4524 13.2481 69.7713 14.771 69.8776 15.5868C70.1433 17.3273 69.7713 19.3941 68.9208 21.3521C67.5388 24.6699 64.456 27.7157 62.3298 26.7366C60.2037 25.812 60.2569 21.4609 61.692 18.1431C62.9145 15.2605 65.4127 12.541 67.4325 12.541Z" fill="#C0C6F0"/>
<path d="M83.6861 3.78436C82.942 3.6212 82.1979 4.1107 82.0384 4.81776L80.9222 9.93035H77.9988C77.2546 9.93035 76.6168 10.5286 76.6168 11.2901C76.6168 12.0515 77.2546 12.7042 77.9988 12.7042H78.4771H78.7429H80.2844L80.2312 12.7586L78.5303 20.645C77.5735 24.9962 78.6366 28.5315 81.0816 29.5105C81.5069 29.6737 81.9852 29.7281 82.4105 29.7281C85.1213 29.7281 88.151 26.8454 89.8519 22.2767C90.1177 21.5153 90.3303 20.7538 90.4897 19.9924C90.7023 19.2309 90.224 18.5239 89.4798 18.3063C88.7888 18.1431 88.0447 18.6326 87.8852 19.3397C87.7258 19.9924 87.5132 20.645 87.3005 21.2977C85.7591 25.3769 83.1546 27.3349 82.0384 26.8998C81.0816 26.5191 80.497 24.3435 81.1348 21.2433L82.8888 13.4113L83.0483 12.7042H85.387C86.1312 12.7042 86.7159 12.1059 86.7159 11.3445C86.7159 10.6374 86.1312 9.98474 85.387 9.98474H83.6861L84.696 5.47043C84.8555 4.70898 84.3771 3.94753 83.6861 3.78436Z" fill="#C0C6F0"/>
<path d="M98.8293 10.1479C97.0753 9.38646 95.0555 9.76718 93.0357 11.1813C91.2816 12.4866 89.687 14.5534 88.6771 17.001C86.3915 22.3311 87.2951 27.77 90.6969 29.2929C91.3348 29.5649 91.9726 29.6737 92.6104 29.6737C94.6834 29.6737 96.969 28.3683 98.7762 26.084C99.1483 27.8788 100.052 29.1842 101.434 29.7281C101.859 29.8912 102.284 29.9456 102.763 29.9456C105.473 29.9456 108.503 27.063 110.151 22.4943C110.47 21.7328 110.682 20.9714 110.842 20.2099C111.001 19.4485 110.576 18.7414 109.832 18.5239C109.141 18.3607 108.397 18.8502 108.237 19.5573C108.078 20.2099 107.865 20.8626 107.653 21.5153C106.962 23.4189 105.899 25.105 104.729 26.1927C103.826 27.0086 102.975 27.3349 102.391 27.1174C101.434 26.7366 100.849 24.5611 101.487 21.4609L103.294 13.6288L103.613 12.1059C103.773 11.3445 103.294 10.6374 102.603 10.4742C101.859 10.3111 101.115 10.7462 100.955 11.5076L100.902 11.8884C100.371 11.1269 99.6798 10.5286 98.8293 10.1479ZM96.969 12.541C97.2348 12.541 97.5005 12.5954 97.7663 12.7042C98.9357 13.1937 99.2546 14.7166 99.3609 15.5868C99.6266 17.2729 99.2546 19.3941 98.4041 21.3521C97.1816 24.2347 94.6834 26.8998 92.6636 26.8998C92.3447 26.8998 92.0789 26.8454 91.8131 26.7366C89.687 25.7576 89.7402 21.4065 91.1753 18.0887C91.9726 16.1307 93.2483 14.4447 94.6303 13.4657C95.1618 13.0849 96.0654 12.541 96.969 12.541Z" fill="#C0C6F0"/>
<path d="M113.169 4.05631C112.425 3.89314 111.681 4.38265 111.522 5.08971L109.714 13.0305L107.96 20.8626C107.004 25.2137 108.067 28.8034 110.512 29.7281C110.937 29.9456 111.362 30 111.841 30C114.551 30 117.581 27.063 119.282 22.5487C119.548 21.7872 119.76 20.9714 119.92 20.2099C120.079 19.5029 119.654 18.7414 118.91 18.5783C118.219 18.4151 117.475 18.8502 117.315 19.6116C117.156 20.2643 116.943 20.917 116.731 21.5153C115.189 25.6489 112.585 27.6069 111.469 27.1718C110.512 26.791 109.927 24.5611 110.565 21.5153L112.372 13.6832L114.179 5.74238C114.339 4.98093 113.86 4.21948 113.169 4.05631Z" fill="#C0C6F0"/>
<path d="M122.147 4.38264C121.456 4.21948 120.712 4.65459 120.552 5.41604L118.639 13.6832L115.45 28.2595C115.29 29.021 115.715 29.7824 116.46 29.9456H116.778C117.363 29.9456 117.948 29.5105 118.107 28.9122L120.552 17.5992C121.828 17.7624 122.678 18.1975 123.263 19.0134C123.954 20.0468 123.901 21.4609 123.848 22.9294L123.795 23.3101C123.741 25.0506 123.582 28.5859 126.559 29.7281C126.984 29.8912 127.409 29.9456 127.887 29.9456C130.598 29.9456 133.628 27.0086 135.276 22.4943C135.595 21.7328 135.807 20.9714 135.967 20.2099C136.126 19.4485 135.701 18.687 134.957 18.5239C134.213 18.3607 133.522 18.8502 133.362 19.5573C133.203 20.2099 132.99 20.8626 132.777 21.5153C132.033 23.4189 130.97 25.105 129.854 26.1384C128.95 27.0086 128.1 27.3349 127.515 27.1174C126.559 26.7366 126.452 25.3769 126.505 23.4189L126.559 23.0926C126.612 21.2977 126.718 19.2309 125.496 17.4361C125.177 17.001 124.858 16.6746 124.486 16.3483C125.442 15.75 126.399 14.8798 127.143 13.6288C127.941 12.3235 128.259 10.3111 127.409 8.89696C126.824 7.97234 125.708 7.48283 124.486 7.646C123.795 7.70039 123.21 7.91795 122.678 8.13551L123.157 6.06872C123.369 5.30727 122.891 4.54581 122.147 4.38264ZM124.964 10.3655C125.07 10.3655 125.123 10.4199 125.123 10.4199C125.283 10.583 125.283 11.4533 124.858 12.1603C124.007 13.5744 122.997 14.2815 121.243 14.6078C122.2 10.7462 124.114 10.4742 124.805 10.4199C124.858 10.3655 124.911 10.3655 124.964 10.3655Z" fill="#C0C6F0"/>
</svg>
