<svg width="32" height="32" viewBox="0 0 32 32" fill="none" xmlns="http://www.w3.org/2000/svg">
<path d="M25.2535 7.22854L18.3601 3.24188C17.0401 2.48188 14.9735 2.48188 13.6535 3.24188L6.69344 7.25521C3.93344 9.12188 3.77344 9.40188 3.77344 12.3752V19.6152C3.77344 22.5885 3.93344 22.8819 6.74677 24.7752L13.6401 28.7619C14.3068 29.1485 15.1601 29.3352 16.0001 29.3352C16.8401 29.3352 17.6935 29.1485 18.3468 28.7619L25.3068 24.7485C28.0668 22.8819 28.2268 22.6019 28.2268 19.6285V12.3752C28.2268 9.40188 28.0668 9.12188 25.2535 7.22854ZM16.0001 20.3352C13.6135 20.3352 11.6668 18.3885 11.6668 16.0019C11.6668 13.6152 13.6135 11.6685 16.0001 11.6685C18.3868 11.6685 20.3335 13.6152 20.3335 16.0019C20.3335 18.3885 18.3868 20.3352 16.0001 20.3352Z" fill="#8B9AEA"/>
</svg>
