<svg width="25" height="24" viewBox="0 0 25 24" fill="none" xmlns="http://www.w3.org/2000/svg">
<path d="M12.1668 22.2C12.1668 22.2 20.5668 16.6364 20.5668 10.1454C20.5668 7.93209 19.6818 5.80939 18.1065 4.24431C16.5312 2.67924 14.3947 1.79999 12.1668 1.79999C9.93903 1.79999 7.80245 2.67924 6.22715 4.24431C4.65184 5.80939 3.76685 7.93209 3.76685 10.1454C3.76685 16.6364 12.1668 22.2 12.1668 22.2Z" stroke="#67C6A4" stroke-width="2" stroke-linecap="round" stroke-linejoin="round"/>
<path d="M12.1667 13C13.8236 13 15.1667 11.6569 15.1667 10C15.1667 8.34315 13.8236 7 12.1667 7C10.5099 7 9.16675 8.34315 9.16675 10C9.16675 11.6569 10.5099 13 12.1667 13Z" stroke="#67C6A4" stroke-width="2" stroke-linecap="round" stroke-linejoin="round"/>
</svg>
