<svg width="24" height="24" viewBox="0 0 24 24" fill="none" xmlns="http://www.w3.org/2000/svg">
<path d="M9.0001 10.4C10.3001 10.4 11.4001 9.29998 11.4001 7.99998C11.4001 6.69998 10.3001 5.59998 9.0001 5.59998C7.7001 5.59998 6.6001 6.69998 6.6001 7.99998C6.6001 9.29998 7.7001 10.4 9.0001 10.4Z" fill="#BEC1CA"/>
<path d="M16.2 2H7.8C4.2 2 2 4.2 2 7.8V16.2C2 17.3 2.2 18.2 2.6 19C3.5 20.9 5.3 22 7.9 22H16.3C19.9 22 22.1 19.8 22.1 16.2V13.9V7.8C22 4.2 19.8 2 16.2 2ZM20.4 12.5C19.6 11.8 18.4 11.8 17.6 12.5L13.4 16.1C12.6 16.8 11.4 16.8 10.6 16.1L10.3 15.8C9.6 15.2 8.5 15.1 7.7 15.7L4 18.2C3.8 17.6 3.7 17 3.7 16.2V7.8C3.5 5 5 3.5 7.8 3.5H16.2C19 3.5 20.5 5 20.5 7.8V12.6L20.4 12.5Z" fill="#BEC1CA"/>
</svg>
