<svg width="24" height="24" viewBox="0 0 24 24" fill="none" xmlns="http://www.w3.org/2000/svg">
<path d="M11.75 12.5C12.1642 12.5 12.5 12.1642 12.5 11.75C12.5 11.3358 12.1642 11 11.75 11C11.3358 11 11 11.3358 11 11.75C11 12.1642 11.3358 12.5 11.75 12.5Z" fill="#B0B1B6" stroke="#B0B1B6" stroke-width="2" stroke-linecap="round" stroke-linejoin="round"/>
<path d="M11.75 5.5C12.1642 5.5 12.5 5.16421 12.5 4.75C12.5 4.33579 12.1642 4 11.75 4C11.3358 4 11 4.33579 11 4.75C11 5.16421 11.3358 5.5 11.75 5.5Z" fill="#B0B1B6" stroke="#B0B1B6" stroke-width="2" stroke-linecap="round" stroke-linejoin="round"/>
<path d="M11.75 19.5C12.1642 19.5 12.5 19.1642 12.5 18.75C12.5 18.3358 12.1642 18 11.75 18C11.3358 18 11 18.3358 11 18.75C11 19.1642 11.3358 19.5 11.75 19.5Z" fill="#B0B1B6" stroke="#B0B1B6" stroke-width="2" stroke-linecap="round" stroke-linejoin="round"/>
</svg>
