<svg width="20" height="20" viewBox="0 0 20 20" fill="none" xmlns="http://www.w3.org/2000/svg">
<path d="M19.7671 9.31592C19.4631 8.82581 18.926 8.53284 18.3303 8.53284H5.06613C4.40863 8.53284 3.81064 8.90347 3.54224 9.47736L0.0339355 16.8332C0.166382 17.3718 0.669464 17.7742 1.26868 17.7742H15.3808C15.9841 17.7742 16.5356 17.433 16.805 16.8931L19.8374 10.8152C20.0768 10.3343 20.0503 9.77383 19.7671 9.31592Z" fill="#F5B953"/>
<path d="M2.82822 8.34595C3.09631 7.77222 3.69446 7.40143 4.35211 7.40143H16.8425V5.80384C16.8425 5.14527 16.2869 4.60938 15.6041 4.60938H8.32108C8.3104 4.60938 8.30307 4.60663 8.30033 4.60465L6.99677 2.78198C6.7659 2.45865 6.38459 2.26562 5.97718 2.26562H1.23871C0.555573 2.26562 0 2.80151 0 3.46008V14.2755L2.82822 8.34595Z" fill="#FFCE3A"/>
</svg>
