<svg width="20" height="20" viewBox="0 0 20 20" fill="none" xmlns="http://www.w3.org/2000/svg">
<g clip-path="url(#clip0_384_4964)">
<path d="M10 20C4.48598 20 0 15.514 0 10C0 4.48602 4.48598 0 10 0C15.5141 0 20 4.48598 20 10C20 15.5141 15.514 20 10 20Z" fill="#FDBF00"/>
<path d="M10 18C5.58879 18 2 14.4112 2 9.99998C2 5.58876 5.58879 2 10 2C14.4112 2 18 5.5888 18 10C18 14.4112 14.4112 18 10 18Z" fill="#FFDE46"/>
<path d="M13.1501 13H6.83703C6.5485 13 6.29502 12.8191 6.21636 12.5571L5.02443 8.58637C4.961 8.37499 5.02314 8.14778 5.18704 7.99177C5.35094 7.83579 5.59117 7.77519 5.81567 7.83327L7.76688 8.3381L9.48982 6.2363C9.612 6.08726 9.80041 6 10 6C10.1997 6 10.3881 6.08726 10.5103 6.2363L12.2332 8.3381L14.1843 7.83327C14.4092 7.77511 14.6497 7.83591 14.8136 7.99238C14.9775 8.1488 15.0392 8.37653 14.9751 8.58803L13.7703 12.5588C13.691 12.82 13.438 13 13.1501 13Z" fill="#FFB800"/>
</g>
<defs>
<clipPath id="clip0_384_4964">
<rect width="20" height="20" fill="white"/>
</clipPath>
</defs>
</svg>
