<svg width="24" height="24" viewBox="0 0 24 24" fill="none" xmlns="http://www.w3.org/2000/svg">
<path d="M8.64044 20.9592C9.22497 20.8715 10.0287 20.4622 10.4525 20.0383L16.9992 13.5339C16.6923 13.4316 16.3854 13.3 16.0493 13.1538C15.7278 12.993 15.4063 12.8323 15.1141 12.6569C14.8656 12.5253 14.6318 12.3645 14.398 12.1891C14.2081 12.0576 13.9889 11.8822 13.7697 11.7068L13.7697 11.7068C13.7404 11.6922 13.682 11.6337 13.5797 11.5314L13.5797 11.5314C13.2144 11.2244 12.7906 10.8151 12.4252 10.3766C12.396 10.3474 12.3376 10.2743 12.2645 10.172C12.1476 10.0405 11.9576 9.80659 11.7969 9.55811C11.6654 9.38271 11.5046 9.14884 11.3585 8.90035C11.1831 8.60802 11.0224 8.28645 10.8763 7.9795C10.7155 7.62871 10.5986 7.32176 10.4817 7.01482L10.4817 7.01479L3.96424 13.5339C3.52584 13.9578 3.13129 14.7471 3.04361 15.3463L2.53215 18.9421C2.41525 19.7168 2.61983 20.4184 3.10206 20.9007C3.49662 21.2954 4.05192 21.5 4.65106 21.5C4.78256 21.5 4.91406 21.4854 5.04556 21.4708L5.04561 21.4708L8.64044 20.9592Z" fill="white"/>
<path d="M18.4897 12.0137L19.8341 10.6544C20.9447 9.54349 21.4854 8.49109 21.5 7.43868C21.5 6.32781 20.9593 5.26078 19.8487 4.14991C17.6714 1.97201 15.5525 1.92816 13.3313 4.14991L11.9722 5.50927C11.8553 5.61158 11.8115 5.78698 11.8553 5.94777C12.7029 8.91497 15.0702 11.2829 18.0367 12.1307C18.0659 12.1453 18.1243 12.1453 18.1682 12.1453H18.1682C18.2851 12.1453 18.402 12.1014 18.4897 12.0137Z" fill="white"/>
</svg>
