<svg width="32" height="32" viewBox="0 0 32 32" fill="none" xmlns="http://www.w3.org/2000/svg">
<path d="M22.6668 2.66669H9.33342C5.60008 2.66669 2.66675 5.60002 2.66675 9.33335V17.3334V18.6667C2.66675 22.2667 5.60008 25.3334 9.33342 25.3334H11.3334C11.7334 25.3334 12.1334 25.6 12.4001 25.8667L14.4001 28.5334C15.3334 29.7334 16.6668 29.7334 17.6001 28.5334L19.6001 25.8667C19.8668 25.4667 20.2668 25.3334 20.6668 25.3334H22.6668C26.4001 25.3334 29.3334 22.4 29.3334 18.6667V9.33335C29.3334 5.60002 26.4001 2.66669 22.6668 2.66669ZM17.3334 18.4H9.33342C8.80008 18.4 8.26675 18 8.26675 17.3334C8.26675 16.6667 8.66675 16.2667 9.33342 16.2667H17.3334C17.8668 16.2667 18.4001 16.6667 18.4001 17.3334C18.4001 18 17.8668 18.4 17.3334 18.4ZM22.6668 11.7334H9.33342C8.80008 11.7334 8.40008 11.2 8.40008 10.6667C8.40008 10.1334 8.80008 9.73335 9.33342 9.73335H22.6668C23.2001 9.73335 23.7334 10.1334 23.7334 10.8C23.7334 11.4667 23.2001 11.7334 22.6668 11.7334Z" fill="#D5D5DE"/>
</svg>
