<svg width="22" height="22" viewBox="0 0 22 22" fill="none" xmlns="http://www.w3.org/2000/svg">
<path fill-rule="evenodd" clip-rule="evenodd" d="M7.32428 0H15.6443C16.9361 0.00146484 17.9829 1.04828 17.9844 2.34009V19.66C17.9829 20.9518 16.9361 21.9987 15.6443 21.9999H7.32428C6.03247 21.9987 4.98566 20.9518 4.98438 19.66V2.34009C4.98566 1.04828 6.03247 0.00146484 7.32428 0ZM12.98 3H9.98001C9.70389 3 9.47995 2.77606 9.47995 2.49994C9.47995 2.22382 9.70389 2.00006 9.98001 2.00006H12.98C13.2561 2.00006 13.4799 2.22382 13.4799 2.49994C13.4799 2.77606 13.2561 3 12.98 3ZM11.48 20.0001C10.9276 20.0001 10.4799 19.5524 10.4799 18.9999C10.4799 18.4477 10.9276 18 11.48 18C12.0323 18 12.4799 18.4477 12.4799 18.9999C12.4799 19.5524 12.0323 20.0001 11.48 20.0001Z" fill="#A5A8AF"/>
</svg>
