<svg width="38" height="18" viewBox="0 0 38 18" fill="none" xmlns="http://www.w3.org/2000/svg">
<rect width="38" height="18" rx="9" fill="#464CDE"/>
<path d="M7 12.8745H8.68045V7.83765H8.77349L12.6577 12.8745H14.1114V5H12.4309V10.015H12.3379L8.46531 5H7V12.8745Z" fill="white"/>
<path d="M18.34 13C20.2124 13 21.0381 11.985 21.2358 11.2319L21.2474 11.1774H19.6658L19.6483 11.2101C19.532 11.4393 19.1192 11.8104 18.3749 11.8104C17.4736 11.8104 16.9096 11.2374 16.8922 10.2497H21.2997V9.75307C21.2997 7.93588 20.1368 6.73533 18.2703 6.73533C16.4037 6.73533 15.2117 7.96317 15.2117 9.87312V9.87858C15.2117 11.8049 16.3921 13 18.34 13ZM18.2993 7.93042C19.0378 7.93042 19.5669 8.3779 19.6716 9.25102H16.9096C17.0143 8.39973 17.5609 7.93042 18.2993 7.93042Z" fill="white"/>
<path d="M23.3304 12.8745H25.1097L26.2436 8.68349H26.3482L27.4937 12.8745H29.2963L31 6.8663H29.3195L28.3659 11.2156H28.2613L27.1332 6.8663H25.5167L24.3945 11.2156H24.2898L23.3362 6.8663H21.6209L23.3304 12.8745Z" fill="white"/>
</svg>
