<svg width="90" height="31" viewBox="0 0 90 31" fill="none" xmlns="http://www.w3.org/2000/svg">
<g clip-path="url(#clip0_774_7264)">
<path d="M11.4156 0.115051C5.11903 0.115051 0 5.2598 0 11.5716C0 11.6373 0 11.7031 0 11.7688C0 11.8017 0 11.8346 0 11.8674V28.0249C0 29.6522 1.32473 30.9836 2.94385 30.9836C4.56297 30.9836 5.8877 29.6522 5.8877 28.0249V21.5981C7.52317 22.5186 9.40396 23.0445 11.4156 23.0445C17.7122 23.0445 22.8312 17.8998 22.8312 11.5716C22.8312 5.24336 17.6958 0.115051 11.4156 0.115051ZM11.4156 17.1272C8.37362 17.1272 5.8877 14.6453 5.8877 11.5716C5.8877 8.49787 8.35726 6.0159 11.4156 6.0159C14.4739 6.0159 16.9435 8.49787 16.9435 11.5716C16.9435 14.6453 14.4739 17.1272 11.4156 17.1272Z" fill="white"/>
<path d="M45.319 0.115051C43.6998 0.115051 42.3751 1.44644 42.3751 3.07369V11.9332C42.3751 14.8096 40.0527 17.1437 37.1907 17.1437C34.3286 17.1437 32.0062 14.8096 32.0062 11.9332V3.07369C32.0062 1.44644 30.6815 0.115051 29.0624 0.115051C27.4433 0.115051 26.1185 1.44644 26.1185 3.07369V11.9332C26.1185 18.0641 31.074 23.0445 37.1907 23.0445C43.3073 23.0445 48.2465 18.0641 48.2465 11.9332V3.07369C48.2465 1.44644 46.9217 0.115051 45.3026 0.115051H45.319Z" fill="white"/>
<path d="M62.4913 0.11507C56.391 0.11507 51.4355 5.09545 51.4355 11.2264V20.0859C51.4355 21.7132 52.7603 23.0446 54.3794 23.0446C55.9985 23.0446 57.3232 21.7132 57.3232 20.0859V11.2264C57.3232 8.34996 59.6456 6.01592 62.5077 6.01592C64.1268 6.01592 65.4515 4.68453 65.4515 3.05728C65.4515 1.43002 64.1268 0.0986328 62.5077 0.0986328L62.4913 0.11507Z" fill="white"/>
<path d="M89.0187 13.3139C89.7874 12.4427 90.1308 11.2593 89.9673 10.1087C89.1659 4.33934 84.3249 0 78.6825 0C72.5822 0 67.594 4.93107 67.2997 11.2264C67.2015 13.4947 67.7085 15.7301 68.8043 17.8998C69.6874 19.6257 71.094 21.0885 72.7621 22.009C74.6756 23.0774 76.8018 23.6034 78.8952 23.6034C81.5283 23.6034 84.096 22.7651 86.1239 21.1379C87.3505 20.1516 87.5632 18.3436 86.5655 17.0944C85.5842 15.8452 83.7689 15.6479 82.5423 16.6506C81.0376 17.8505 78.2083 18.4751 75.5097 16.9958C74.8228 16.6177 74.2504 16.0095 73.8743 15.3028C73.7761 15.1055 73.678 14.9083 73.5962 14.711H86.0422C87.1706 14.711 88.25 14.2179 89.0024 13.3468L89.0187 13.3139ZM73.6944 8.92524C74.6593 7.03499 76.5401 5.75292 78.6825 5.75292C80.825 5.75292 82.7058 7.03499 83.6707 8.92524H73.6944Z" fill="white"/>
</g>
<defs>
<clipPath id="clip0_774_7264">
<rect width="90" height="31" fill="white"/>
</clipPath>
</defs>
</svg>
