<svg width="32" height="32" viewBox="0 0 32 32" fill="none" xmlns="http://www.w3.org/2000/svg">
<path d="M28.08 7.5894C27.1021 6.30456 25.7207 5.38572 24.1577 4.9805C22.5947 4.57527 20.9409 4.70718 19.4619 5.35503C18.1381 5.92628 16.9575 6.8894 16 8.16752C15.0425 6.88627 13.8619 5.92315 12.5381 5.35503C11.0591 4.70718 9.4053 4.57527 7.84231 4.9805C6.27933 5.38572 4.89792 6.30456 3.92 7.5894C2.88875 8.94065 2.34375 10.6294 2.34375 12.4725C2.34375 15.125 3.92563 18.035 7.045 21.125C9.58687 23.6419 12.5906 25.7031 14.1544 26.7075C14.7054 27.0602 15.3458 27.2476 16 27.2476C16.6542 27.2476 17.2946 27.0602 17.8456 26.7075C19.4081 25.7031 22.4131 23.6419 24.955 21.125C28.0744 18.0363 29.6562 15.125 29.6562 12.4725C29.6562 10.6294 29.1112 8.94065 28.08 7.5894Z" fill="#8B9AEA"/>
</svg>
