<svg width="112" height="94" viewBox="0 0 112 94" fill="none" xmlns="http://www.w3.org/2000/svg">
<g clip-path="url(#clip0_329_4683)">
<g filter="url(#filter0_i_329_4683)">
<path d="M92.7557 37.4338C92.9719 25.0347 86.9557 12.8211 75.7754 5.67838C59.3293 -4.81509 37.2485 -0.364473 26.1255 15.7114C21.5338 22.349 19.4288 29.9201 19.5623 37.3698C19.5878 38.8917 18.4875 40.1642 17.0057 40.4776C7.29453 42.5366 0 51.2012 0 61.5796C0 73.4927 9.60309 83.1484 21.4511 83.1484H90.5489C102.397 83.1484 112 73.4927 112 61.5796C112 51.3035 104.852 42.7029 95.2805 40.5415C93.8177 40.209 92.7302 38.9429 92.7557 37.4401V37.4338Z" fill="#E7EBEE"/>
</g>
<path d="M41.8912 47.7673C43.8335 47.7673 45.4081 46.0467 45.4081 43.9242C45.4081 41.8017 43.8335 40.0811 41.8912 40.0811C39.9488 40.0811 38.3743 41.8017 38.3743 43.9242C38.3743 46.0467 39.9488 47.7673 41.8912 47.7673Z" fill="#BCC1C6"/>
<path d="M70.1089 47.7673C72.0513 47.7673 73.6258 46.0467 73.6258 43.9242C73.6258 41.8017 72.0513 40.0811 70.1089 40.0811C68.1666 40.0811 66.592 41.8017 66.592 43.9242C66.592 46.0467 68.1666 47.7673 70.1089 47.7673Z" fill="#BCC1C6"/>
<path fill-rule="evenodd" clip-rule="evenodd" d="M56.0033 48.0167C54.9426 48.0167 54.0827 48.8813 54.0827 49.9479C54.0827 51.0144 54.9426 51.879 56.0033 51.879C57.064 51.879 57.9239 51.0144 57.9239 49.9479C57.9239 48.8813 57.064 48.0167 56.0033 48.0167ZM52.1748 49.9479C52.1748 47.8219 53.8889 46.0984 56.0033 46.0984C58.1177 46.0984 59.8318 47.8219 59.8318 49.9479C59.8318 52.0739 58.1177 53.7974 56.0033 53.7974C53.8889 53.7974 52.1748 52.0739 52.1748 49.9479Z" fill="#BCC1C6"/>
<path fill-rule="evenodd" clip-rule="evenodd" d="M86.0398 92C92.6114 92 97.9387 86.6434 97.9387 80.0357C97.9387 73.4281 92.6114 68.0715 86.0398 68.0715C79.4682 68.0715 74.1409 73.4281 74.1409 80.0357C74.1409 86.6434 79.4682 92 86.0398 92ZM81.6809 75.6528C82.1776 75.1533 82.983 75.1533 83.4797 75.6528L86.0399 78.2271L88.6002 75.6528C89.0969 75.1533 89.9023 75.1533 90.399 75.6528C90.8957 76.1522 90.8957 76.962 90.399 77.4614L87.8387 80.0357L90.399 82.6101C90.8957 83.1095 90.8957 83.9193 90.399 84.4187C89.9023 84.9182 89.0969 84.9182 88.6002 84.4187L86.0399 81.8444L83.4797 84.4187C82.983 84.9182 82.1776 84.9182 81.6809 84.4187C81.1842 83.9193 81.1842 83.1095 81.6809 82.6101L84.2412 80.0357L81.6809 77.4614C81.1842 76.962 81.1842 76.1522 81.6809 75.6528Z" fill="#BCC1C6"/>
</g>
<defs>
<filter id="filter0_i_329_4683" x="0" y="-0.000610352" width="112" height="85.149" filterUnits="userSpaceOnUse" color-interpolation-filters="sRGB">
<feFlood flood-opacity="0" result="BackgroundImageFix"/>
<feBlend mode="normal" in="SourceGraphic" in2="BackgroundImageFix" result="shape"/>
<feColorMatrix in="SourceAlpha" type="matrix" values="0 0 0 0 0 0 0 0 0 0 0 0 0 0 0 0 0 0 127 0" result="hardAlpha"/>
<feOffset dy="2"/>
<feGaussianBlur stdDeviation="2"/>
<feComposite in2="hardAlpha" operator="arithmetic" k2="-1" k3="1"/>
<feColorMatrix type="matrix" values="0 0 0 0 0.0588235 0 0 0 0 0.0431373 0 0 0 0 0.235294 0 0 0 0.1 0"/>
<feBlend mode="normal" in2="shape" result="effect1_innerShadow_329_4683"/>
</filter>
<clipPath id="clip0_329_4683">
<rect width="112" height="94" fill="white"/>
</clipPath>
</defs>
</svg>
