<svg width="44" height="44" viewBox="0 0 44 44" fill="none" xmlns="http://www.w3.org/2000/svg">
<path fill-rule="evenodd" clip-rule="evenodd" d="M44 22C44 34.1503 34.1503 44 22 44C9.84974 44 0 34.1503 0 22C0 9.84974 9.84974 0 22 0C34.1503 0 44 9.84974 44 22ZM19.9375 14.4375C19.9375 13.2984 20.8609 12.375 22 12.375C23.1391 12.375 24.0625 13.2984 24.0625 14.4375V21.3125C24.0625 22.4516 23.1391 23.375 22 23.375C20.8609 23.375 19.9375 22.4516 19.9375 21.3125V14.4375ZM22 27.5C20.8609 27.5 19.9375 28.4234 19.9375 29.5625C19.9375 30.7016 20.8609 31.625 22 31.625C23.1391 31.625 24.0625 30.7016 24.0625 29.5625C24.0625 28.4234 23.1391 27.5 22 27.5Z" fill="#E7EBEE"/>
</svg>
