<svg width="20" height="20" viewBox="0 0 20 20" fill="none" xmlns="http://www.w3.org/2000/svg">
<g clip-path="url(#clip0_384_4975)">
<path d="M20 10.0002C20 4.47692 15.5228 0.00012207 10.0002 0.00012207C4.4772 0.00012207 0 4.47692 0 10.0002C0 15.5227 4.4772 19.9999 10.0002 19.9999C15.5228 19.9999 20 15.5227 20 10.0002Z" fill="#8B9AEA"/>
<path d="M6 7.31306C6 6.81112 6.16264 6.3025 6.48799 5.78731C6.81323 5.27213 7.28801 4.84546 7.91199 4.50725C8.53601 4.16914 9.26401 4 10.096 4C10.8692 4 11.552 4.14144 12.144 4.42403C12.736 4.70677 13.1932 5.09119 13.516 5.57726C13.8386 6.06348 14 6.5918 14 7.16246C14 7.61163 13.908 8.00536 13.724 8.34343C13.54 8.68165 13.3212 8.97358 13.068 9.21923C12.8146 9.46496 12.3599 9.87845 11.704 10.4597C11.5226 10.6235 11.3772 10.7676 11.268 10.8917C11.1586 11.0159 11.0772 11.1295 11.024 11.2325C10.9706 11.3355 10.9292 11.4385 10.8999 11.5416C10.8706 11.6446 10.8266 11.8257 10.768 12.0845C10.6666 12.6341 10.3492 12.9089 9.81597 12.9089C9.5386 12.9089 9.30522 12.8191 9.11597 12.6394C8.9266 12.4598 8.83198 12.1929 8.83198 11.8388C8.83198 11.395 8.90123 11.0105 9.03998 10.6856C9.17863 10.3606 9.3626 10.0753 9.59198 9.82961C9.82121 9.58389 10.1306 9.29199 10.52 8.95378C10.8612 8.65791 11.108 8.43462 11.26 8.28402C11.412 8.13342 11.54 7.96576 11.644 7.7807C11.748 7.5958 11.8 7.39506 11.8 7.17833C11.8 6.75564 11.6413 6.39899 11.324 6.10832C11.0066 5.81779 10.5972 5.67239 10.096 5.67239C9.50922 5.67239 9.07723 5.81902 8.79997 6.11229C8.52261 6.40556 8.28799 6.83752 8.09597 7.40819C7.91461 8.00536 7.57058 8.30383 7.06395 8.30383C6.76517 8.30383 6.51319 8.19954 6.30795 7.99075C6.10264 7.78204 6 7.55615 6 7.31306ZM9.90401 16C9.57862 16 9.29463 15.8956 9.052 15.6869C8.80926 15.4783 8.68798 15.1863 8.68798 14.8111C8.68798 14.4782 8.80522 14.1982 9.03998 13.9709C9.2746 13.7438 9.5626 13.6301 9.90397 13.6301C10.24 13.6301 10.5226 13.7438 10.752 13.9709C10.9812 14.1982 11.096 14.4782 11.096 14.8111C11.096 15.181 10.976 15.4716 10.736 15.683C10.4959 15.8943 10.2187 16 9.90401 16Z" fill="white"/>
</g>
<defs>
<clipPath id="clip0_384_4975">
<rect width="20" height="20" fill="white"/>
</clipPath>
</defs>
</svg>
